<?xml version="1.0" encoding="UTF-8" standalone="no"?>
<svg
   xmlns:dc="http://purl.org/dc/elements/1.1/"
   xmlns:cc="http://creativecommons.org/ns#"
   xmlns:rdf="http://www.w3.org/1999/02/22-rdf-syntax-ns#"
   xmlns:svg="http://www.w3.org/2000/svg"
   xmlns="http://www.w3.org/2000/svg"
   xmlns:sodipodi="http://sodipodi.sourceforge.net/DTD/sodipodi-0.dtd"
   xmlns:inkscape="http://www.inkscape.org/namespaces/inkscape"
   width="200mm"
   height="200mm"
   viewBox="0 0 200 200"
   version="1.1"
   id="svg8"
   inkscape:version="1.0.1 (3bc2e813f5, 2020-09-07)"
   sodipodi:docname="crosshairs_inactive.svg">
  <defs
     id="defs2">
    <clipPath
       id="clip0">
      <rect
         x="698"
         y="332"
         width="334"
         height="334"
         id="rect833" />
    </clipPath>
    <clipPath
       id="clip0-2">
      <rect
         x="695"
         y="329"
         width="340"
         height="340"
         id="rect852" />
    </clipPath>
    <clipPath
       id="clip0-6">
      <rect
         x="430"
         y="191"
         width="753"
         height="755"
         id="rect836" />
    </clipPath>
    <clipPath
       id="clip0-5">
      <rect
         x="414"
         y="179"
         width="783"
         height="779"
         id="rect866" />
    </clipPath>
    <clipPath
       id="clip0-8">
      <rect
         x="414"
         y="198"
         width="754"
         height="732"
         id="rect897" />
    </clipPath>
  </defs>
  <sodipodi:namedview
     id="base"
     pagecolor="#ffffff"
     bordercolor="#666666"
     borderopacity="1.0"
     inkscape:pageopacity="0.0"
     inkscape:pageshadow="2"
     inkscape:zoom="0.70185896"
     inkscape:cx="534.77887"
     inkscape:cy="530.63206"
     inkscape:document-units="mm"
     inkscape:current-layer="g881"
     inkscape:document-rotation="0"
     showgrid="false"
     inkscape:window-width="1920"
     inkscape:window-height="974"
     inkscape:window-x="-11"
     inkscape:window-y="-11"
     inkscape:window-maximized="1" />
  <metadata
     id="metadata5">
    <rdf:RDF>
      <cc:Work
         rdf:about="">
        <dc:format>image/svg+xml</dc:format>
        <dc:type
           rdf:resource="http://purl.org/dc/dcmitype/StillImage" />
        <dc:title />
      </cc:Work>
    </rdf:RDF>
  </metadata>
  <g
     inkscape:label="Layer 1"
     inkscape:groupmode="layer"
     id="layer1">
    <g
       clip-path="url(#clip0-6)"
       transform="matrix(0.26458333,0,0,0.26458333,-113.29166,-49.908909)"
       id="g851">
      <g
         id="g876"
         transform="translate(37.371461,-20.231439)">
        <g
           clip-path="url(#clip0-5)"
           transform="translate(-21.378352,12.539783)"
           id="g881">
          <g
             clip-path="url(#clip0-8)"
             transform="translate(-3.377461,24.002685)"
             id="g912">
            <g
               id="g940"
               transform="matrix(0.89999993,0,0,0.89999993,79.352642,55.027432)">
              <path
                 d="m 510.02608,550.27382 c 0,-156.573 126.927,-283.5 283.5,-283.5 156.573,0 283.50002,126.927 283.50002,283.5 0,156.573 -126.92702,283.5 -283.50002,283.5 -156.573,0 -283.5,-126.927 -283.5,-283.5 z m 67.257,0 c 0,119.427 96.816,216.243 216.243,216.243 119.427,0 216.24002,-96.816 216.24002,-216.243 0,-119.427 -96.81302,-216.243 -216.24002,-216.243 -119.427,0 -216.243,96.816 -216.243,216.243 z"
                 stroke="#4285f4"
                 stroke-width="2"
                 stroke-miterlimit="8"
                 fill="#4285f4"
                 fill-rule="evenodd"
                 id="path902"
                 style="fill:#9b9b9b;fill-opacity:1;stroke:#9b9b9b;stroke-opacity:1" />
              <rect
                 x="1029.4789"
                 y="516.7738"
                 width="141"
                 height="67"
                 stroke="#4285f4"
                 stroke-width="2"
                 stroke-miterlimit="8"
                 fill="#4285f4"
                 id="rect904"
                 style="fill:#9b9b9b;fill-opacity:1;stroke:#9b9b9b;stroke-opacity:1" />
              <rect
                 x="760.02606"
                 y="785.22656"
                 width="67"
                 height="142"
                 stroke="#4285f4"
                 stroke-width="2"
                 stroke-miterlimit="8"
                 fill="#4285f4"
                 id="rect906"
                 style="fill:#9b9b9b;fill-opacity:1;stroke:#9b9b9b;stroke-opacity:1" />
              <rect
                 x="760.02606"
                 y="173.32108"
                 width="67"
                 height="142"
                 stroke="#4285f4"
                 stroke-width="2"
                 stroke-miterlimit="8"
                 fill="#4285f4"
                 id="rect908"
                 style="fill:#9b9b9b;fill-opacity:1;stroke:#9b9b9b;stroke-opacity:1" />
              <rect
                 x="416.5733"
                 y="516.7738"
                 width="141"
                 height="67"
                 stroke="#4285f4"
                 stroke-width="2"
                 stroke-miterlimit="8"
                 fill="#4285f4"
                 id="rect910"
                 style="fill:#9b9b9b;fill-opacity:1;stroke:#9b9b9b;stroke-opacity:1" />
            </g>
          </g>
          <g
             aria-label="?"
             id="text854"
             style="font-style:normal;font-weight:normal;font-size:326.226px;line-height:1.25;font-family:sans-serif;fill:#9b9b9b;fill-opacity:1;stroke:none;stroke-width:8.15567">
            <path
               d="m 806.39617,635.04569 h -40.61896 q -0.15929,-8.76096 -0.15929,-10.67244 0,-19.75196 6.53089,-32.49517 6.53089,-12.7432 26.12357,-28.6722 19.59268,-15.92901 23.41564,-20.867 5.89373,-7.80521 5.89373,-17.20332 0,-13.06179 -10.51314,-22.30061 -10.35386,-9.39811 -28.03505,-9.39811 -17.04404,0 -28.51292,9.71669 -11.46888,9.71669 -15.76972,29.62795 l -41.09683,-5.09728 q 1.75219,-28.51292 24.21209,-48.42418 22.61919,-19.91125 59.2559,-19.91125 38.54819,0 61.32666,20.22983 22.77848,20.07055 22.77848,46.83128 0,14.81397 -8.44237,28.03504 -8.28308,13.22108 -35.68097,35.99955 -14.17682,11.78747 -17.6812,18.95552 -3.34509,7.16805 -3.02651,25.6457 z m -40.61896,60.21163 v -44.7605 h 44.7605 v 44.7605 z"
               style="font-style:normal;font-variant:normal;font-weight:bold;font-stretch:normal;font-size:326.226px;font-family:Arial;-inkscape-font-specification:'Arial, Bold';font-variant-ligatures:normal;font-variant-caps:normal;font-variant-numeric:normal;font-variant-east-asian:normal;fill:#9b9b9b;fill-opacity:1;stroke-width:8.15567"
               id="path866" />
          </g>
        </g>
      </g>
    </g>
  </g>
</svg>
