<?xml version="1.0" encoding="UTF-8" standalone="no"?>
<svg
   xmlns:dc="http://purl.org/dc/elements/1.1/"
   xmlns:cc="http://creativecommons.org/ns#"
   xmlns:rdf="http://www.w3.org/1999/02/22-rdf-syntax-ns#"
   xmlns:svg="http://www.w3.org/2000/svg"
   xmlns="http://www.w3.org/2000/svg"
   xmlns:sodipodi="http://sodipodi.sourceforge.net/DTD/sodipodi-0.dtd"
   xmlns:inkscape="http://www.inkscape.org/namespaces/inkscape"
   version="1.1"
   id="Layer_1"
   x="0px"
   y="0px"
   viewBox="0 0 200 200"
   xml:space="preserve"
   sodipodi:docname="marker.svg"
   width="200"
   height="200"
   inkscape:version="1.0.1 (3bc2e813f5, 2020-09-07)"><metadata
   id="metadata43"><rdf:RDF><cc:Work
       rdf:about=""><dc:format>image/svg+xml</dc:format><dc:type
         rdf:resource="http://purl.org/dc/dcmitype/StillImage" /><dc:title></dc:title></cc:Work></rdf:RDF></metadata><defs
   id="defs41" /><sodipodi:namedview
   pagecolor="#ffffff"
   bordercolor="#666666"
   borderopacity="1"
   objecttolerance="10"
   gridtolerance="10"
   guidetolerance="10"
   inkscape:pageopacity="0"
   inkscape:pageshadow="2"
   inkscape:window-width="1920"
   inkscape:window-height="974"
   id="namedview39"
   showgrid="false"
   inkscape:zoom="1.4743"
   inkscape:cx="73.76662"
   inkscape:cy="115.14219"
   inkscape:window-x="-11"
   inkscape:window-y="-11"
   inkscape:window-maximized="1"
   inkscape:current-layer="Layer_1" />
<g
   id="g6"
   transform="matrix(0.14356274,0,0,0.14356274,63.247963,63.24801)">
	<g
   id="g4">
		<path
   d="M 444.233,169.659 C 434.593,72.932 353.671,0 256.011,0 151.677,0 66.798,84.878 66.798,189.212 c 0,41.238 12.957,80.324 37.489,113.062 L 242.163,504.63 c 3.109,4.609 8.293,7.369 13.847,7.369 5.554,0 10.738,-2.76 13.847,-7.369 L 407.353,302.775 c 28.576,-37.944 41.672,-85.225 36.88,-133.116 z m -188.222,103.03 c -46.031,0 -83.476,-37.445 -83.476,-83.476 0,-46.031 37.444,-83.476 83.476,-83.476 46.031,0 83.476,37.445 83.476,83.476 0,46.031 -37.445,83.476 -83.476,83.476 z"
   id="path2" />
	</g>
</g>
<g
   id="g8">
</g>
<g
   id="g10">
</g>
<g
   id="g12">
</g>
<g
   id="g14">
</g>
<g
   id="g16">
</g>
<g
   id="g18">
</g>
<g
   id="g20">
</g>
<g
   id="g22">
</g>
<g
   id="g24">
</g>
<g
   id="g26">
</g>
<g
   id="g28">
</g>
<g
   id="g30">
</g>
<g
   id="g32">
</g>
<g
   id="g34">
</g>
<g
   id="g36">
</g>
<rect
   style="fill:#000000;fill-opacity:1;stroke:#9b9b9b;stroke-width:0;stroke-dasharray:none"
   id="rect893"
   width="60"
   height="20"
   x="20"
   y="20" /><rect
   style="fill:#000000;fill-opacity:1;stroke:#9b9b9b;stroke-width:0;stroke-dasharray:none"
   id="rect893-1"
   width="60"
   height="20"
   x="-80"
   y="20"
   transform="rotate(-90)" /><rect
   style="fill:#000000;fill-opacity:1;stroke:#9b9b9b;stroke-width:0;stroke-dasharray:none"
   id="rect893-17"
   width="60"
   height="20"
   x="21.500101"
   y="-182.29852"
   transform="rotate(90)" /><rect
   style="fill:#000000;fill-opacity:1;stroke:#9b9b9b;stroke-width:0;stroke-dasharray:none"
   id="rect893-1-2"
   width="60"
   height="20"
   x="122.2985"
   y="21.500101" /><rect
   style="fill:#000000;fill-opacity:1;stroke:#9b9b9b;stroke-width:0;stroke-dasharray:none"
   id="rect893-5"
   width="60.000183"
   height="20.000034"
   x="-182.299"
   y="-181.50011"
   transform="scale(-1)" /><rect
   style="fill:#000000;fill-opacity:1;stroke:#9b9b9b;stroke-width:0;stroke-dasharray:none"
   id="rect893-1-1"
   width="60.000103"
   height="20.000061"
   x="121.5"
   y="-182.299"
   transform="rotate(90)" /><rect
   style="fill:#000000;fill-opacity:1;stroke:#9b9b9b;stroke-width:0;stroke-dasharray:none"
   id="rect893-17-1"
   width="60.000103"
   height="20.000061"
   x="-180.00011"
   y="20"
   transform="rotate(-90)" /><rect
   style="fill:#000000;fill-opacity:1;stroke:#9b9b9b;stroke-width:0;stroke-dasharray:none"
   id="rect893-1-2-4"
   width="60.000183"
   height="20.000034"
   x="-80.000183"
   y="-180.00011"
   transform="scale(-1)" /></svg>
