<?xml version="1.0" encoding="UTF-8" standalone="no"?>
<svg
   xmlns:dc="http://purl.org/dc/elements/1.1/"
   xmlns:cc="http://creativecommons.org/ns#"
   xmlns:rdf="http://www.w3.org/1999/02/22-rdf-syntax-ns#"
   xmlns:svg="http://www.w3.org/2000/svg"
   xmlns="http://www.w3.org/2000/svg"
   xmlns:sodipodi="http://sodipodi.sourceforge.net/DTD/sodipodi-0.dtd"
   xmlns:inkscape="http://www.inkscape.org/namespaces/inkscape"
   width="20"
   height="20"
   overflow="hidden"
   version="1.1"
   id="svg11"
   sodipodi:docname="button_reference.svg"
   inkscape:version="0.92.3 (2405546, 2018-03-11)">
  <sodipodi:namedview
     pagecolor="#ffffff"
     bordercolor="#666666"
     borderopacity="1"
     objecttolerance="10"
     gridtolerance="10"
     guidetolerance="10"
     inkscape:pageopacity="0"
     inkscape:pageshadow="2"
     inkscape:window-width="1920"
     inkscape:window-height="1017"
     id="namedview13"
     showgrid="false"
     inkscape:zoom="10.379103"
     inkscape:cx="1.1497284"
     inkscape:cy="20.925835"
     inkscape:window-x="-8"
     inkscape:window-y="-8"
     inkscape:window-maximized="1"
     inkscape:current-layer="svg11"
     inkscape:document-rotation="0" />
  <metadata
     id="metadata15">
    <rdf:RDF>
      <cc:Work
         rdf:about="">
        <dc:format>image/svg+xml</dc:format>
        <dc:type
           rdf:resource="http://purl.org/dc/dcmitype/StillImage" />
        <dc:title />
      </cc:Work>
    </rdf:RDF>
  </metadata>
  <defs
     id="defs5">
    <clipPath
       id="clip0">
      <rect
         id="rect2"
         height="96"
         width="96"
         y="153"
         x="184" />
    </clipPath>
    <clipPath
       id="clip0-5">
      <rect
         id="rect2-1"
         height="96"
         width="96"
         y="153"
         x="184" />
    </clipPath>
  </defs>
  <path
     style="overflow:hidden"
     transform="matrix(0.226190,0.000000,0.000000,0.226190,-1.083680,1.353895)"
     inkscape:connector-curvature="0"
     id="path7"
     d="m 86.00153,24.23511 h -49.5 l 18.5,-4.1 c 2.7,-0.6 4.4,-3.3 3.8,-6 -0.6,-2.7 -3.3,-4.4 -6,-3.8 l -27,6 c -1,0.3 -2,0.9 -2.8,1.9 l -8.5,11 h -7.5 v 29 h 5 c 7.1,0 7.6,8 21,8 3.2,0 13.8,0 18,0 3.3,0 6,-2.7 6,-6 0,-1.6 -0.6,-3 -1.6,-4 0.2,0 0.4,0 0.6,0 3.3,0 6,-2.7 6,-6 0,-1.6 -0.6,-3.1 -1.7,-4.2 2.7,-0.6 4.7,-3 4.7,-5.8 0,-3.3 -2.7,-6 -6,-6 h 27 c 2.8,0 5,-2.2 5,-5 0,-2.8 -2.2,-5 -5,-5 z" />
</svg>
