<?xml version="1.0" encoding="UTF-8" standalone="no"?>
<!-- Created with Inkscape (http://www.inkscape.org/) -->

<svg
   xmlns:dc="http://purl.org/dc/elements/1.1/"
   xmlns:cc="http://creativecommons.org/ns#"
   xmlns:rdf="http://www.w3.org/1999/02/22-rdf-syntax-ns#"
   xmlns:svg="http://www.w3.org/2000/svg"
   xmlns="http://www.w3.org/2000/svg"
   xmlns:sodipodi="http://sodipodi.sourceforge.net/DTD/sodipodi-0.dtd"
   xmlns:inkscape="http://www.inkscape.org/namespaces/inkscape"
   width="20"
   height="20"
   viewBox="0 0 5.2916665 5.2916668"
   version="1.1"
   id="svg348636"
   sodipodi:docname="button_brand.svg"
   inkscape:version="0.92.3 (2405546, 2018-03-11)"
   shape-rendering="crispEdges">
  <sodipodi:namedview
     id="namedview348638"
     pagecolor="#ffffff"
     bordercolor="#666666"
     borderopacity="1.0"
     inkscape:pageshadow="2"
     inkscape:pageopacity="0.0"
     inkscape:pagecheckerboard="0"
     inkscape:document-units="px"
     showgrid="false"
     units="px"
     inkscape:zoom="12.101347"
     inkscape:cx="6.6934698"
     inkscape:cy="17.105534"
     inkscape:window-width="1920"
     inkscape:window-height="1017"
     inkscape:window-x="-8"
     inkscape:window-y="-8"
     inkscape:window-maximized="1"
     inkscape:current-layer="svg348636"
     inkscape:showpageshadow="false"
     showborder="true"
     viewbox-width="1e-05"
     viewbox-height="1e-05" />
  <metadata
     id="metadata17">
    <rdf:RDF>
      <cc:Work
         rdf:about="">
        <dc:format>image/svg+xml</dc:format>
        <dc:type
           rdf:resource="http://purl.org/dc/dcmitype/StillImage" />
      </cc:Work>
    </rdf:RDF>
  </metadata>
  <defs
     id="defs348633">
    <rect
       id="rect370686"
       height="58.423249"
       width="56.439999"
       y="47.845914"
       x="45.449487" />
    <rect
       id="rect102972-7"
       height="27.813667"
       width="36.461617"
       y="51.186497"
       x="193.76076" />
    <rect
       id="rect102972-9-8"
       height="27.681273"
       width="17.264389"
       y="51.186497"
       x="193.76076" />
    <rect
       id="rect102972-7-5"
       height="27.813667"
       width="36.461617"
       y="51.186497"
       x="193.76076" />
    <rect
       id="rect102972-9-8-8"
       height="27.681273"
       width="17.264389"
       y="51.186497"
       x="193.76076" />
  </defs>
  <text
     style="font-variant-ligatures:none;font-size:24px;-inkscape-font-specification:'Arial, Normal';shape-inside:url(#rect370686);white-space:pre;font-family:Arial;line-height:1.25"
     id="text370684"
     transform="matrix(0.264583,0.000000,0.000000,0.264583,0.000001,0.000000)"
     xml:space="preserve" />
  <path
     style="overflow:hidden"
     transform="matrix(0.059846,0.000000,0.000000,0.059846,-0.286724,0.358218)"
     id="path7"
     d="m 86.00153,24.23511 h -49.5 l 18.5,-4.1 c 2.7,-0.6 4.4,-3.3 3.8,-6 -0.6,-2.7 -3.3,-4.4 -6,-3.8 l -27,6 c -1,0.3 -2,0.9 -2.8,1.9 l -8.5,11 h -7.5 v 29 h 5 c 7.1,0 7.6,8 21,8 3.2,0 13.8,0 18,0 3.3,0 6,-2.7 6,-6 0,-1.6 -0.6,-3 -1.6,-4 0.2,0 0.4,0 0.6,0 3.3,0 6,-2.7 6,-6 0,-1.6 -0.6,-3.1 -1.7,-4.2 2.7,-0.6 4.7,-3 4.7,-5.8 0,-3.3 -2.7,-6 -6,-6 h 27 c 2.8,0 5,-2.2 5,-5 0,-2.8 -2.2,-5 -5,-5 z"
     inkscape:connector-curvature="0" />
</svg>
