<?xml version="1.0" encoding="UTF-8" standalone="no"?>
<!-- Created with Inkscape (http://www.inkscape.org/) -->

<svg
   xmlns:dc="http://purl.org/dc/elements/1.1/"
   xmlns:cc="http://creativecommons.org/ns#"
   xmlns:rdf="http://www.w3.org/1999/02/22-rdf-syntax-ns#"
   xmlns:svg="http://www.w3.org/2000/svg"
   xmlns="http://www.w3.org/2000/svg"
   xmlns:sodipodi="http://sodipodi.sourceforge.net/DTD/sodipodi-0.dtd"
   xmlns:inkscape="http://www.inkscape.org/namespaces/inkscape"
   width="20"
   height="20"
   viewBox="0 0 5.2916665 5.2916668"
   version="1.1"
   id="svg348636"
   sodipodi:docname="button_appnum.svg"
   inkscape:version="0.92.3 (2405546, 2018-03-11)">
  <sodipodi:namedview
     id="namedview348638"
     pagecolor="#ffffff"
     bordercolor="#666666"
     borderopacity="1.0"
     inkscape:pageshadow="2"
     inkscape:pageopacity="0.0"
     inkscape:pagecheckerboard="0"
     inkscape:document-units="mm"
     showgrid="false"
     units="px"
     inkscape:zoom="34.227778"
     inkscape:cx="5.0714758"
     inkscape:cy="8.3902442"
     inkscape:window-width="1920"
     inkscape:window-height="1017"
     inkscape:window-x="-8"
     inkscape:window-y="-8"
     inkscape:window-maximized="1"
     inkscape:current-layer="svg348636"
     inkscape:showpageshadow="false" />
  <metadata
     id="metadata21">
    <rdf:RDF>
      <cc:Work
         rdf:about="">
        <dc:format>image/svg+xml</dc:format>
        <dc:type
           rdf:resource="http://purl.org/dc/dcmitype/StillImage" />
        <dc:title />
      </cc:Work>
    </rdf:RDF>
  </metadata>
  <defs
     id="defs348633" />
  <path
     transform="matrix(0.000265,-0.000313,-0.000435,-0.000192,1.985631,5.806385)"
     style="overflow:hidden;stroke-width:1.25822449"
     inkscape:connector-curvature="0"
     id="path865-2"
     d="m 11115.451,10548.475 c -150.988,-25.164 -305.749,-72.977 -441.638,-138.404 C 10555.541,10352.192 708.67649,4335.3634 577.82114,4240.9966 536.29973,4210.7992 457.03159,4140.3386 401.66972,4086.235 124.86035,3811.9421 -39.967055,3433.2166 -39.967055,3070.8479 c 0,-172.3768 62.91122,-407.6647 148.470475,-556.1352 86.8175,-149.7287 617.78827,-1011.6125 673.15007,-1092.1389 164.8275,-239.0626 430.31271,-412.6976 742.35241,-483.15818 138.4048,-31.4556 403.89,-36.4885 549.8441,-11.324 135.8882,23.9063 317.0726,84.30108 440.3785,145.95398 123.3061,61.653 2089.9108,1258.2245 3903.0123,2373.0114 607.7224,374.9509 749.9018,461.7684 1721.251,1053.1339 425.2799,257.936 787.6486,483.1581 804.0054,496.9986 39.005,36.4885 76.7517,118.2731 76.7517,169.8603 1.2582,161.0527 -174.8932,284.3587 -319.589,223.964 -22.648,-8.8076 -323.3637,-189.992 -669.3754,-400.1154 C 7685.5311,4779.5167 7189.7905,4477.5428 6930.5963,4320.2648 6267.5121,3916.3747 4653.2101,2928.6685 4061.8446,2565.0416 2977.2552,1898.1827 2365.7581,1527.0065 2277.6823,1486.7433 c -152.2451,-70.4606 -264.2271,-95.6251 -442.8949,-96.8833 -181.1843,0 -270.5183,18.8734 -413.9558,88.0756 -162.311,79.2683 -207.6071,137.1466 -554.87711,703.3476 -387.53309,630.3704 -372.43439,602.6895 -402.63178,712.155 -94.36683,340.9789 88.07572,754.9347 434.08748,987.7062 119.53131,80.5264 1097.17161,680.6995 6437.07621,3945.7919 1906.21,1166.374 3490.3146,2132.6901 3519.2526,2147.7891 152.246,78.0096 309.524,114.4976 491.966,114.4976 156.02,0 259.195,-22.648 391.308,-85.559 152.245,-71.7186 237.804,-169.8596 431.571,-489.4488 88.075,-145.954 172.377,-299.4574 187.476,-339.7205 16.356,-46.5543 27.68,-117.0149 32.713,-193.7666 7.55,-163.5692 -18.873,-279.3259 -101.916,-444.1532 -55.361,-108.2073 -83.043,-144.6958 -184.959,-247.8703 C 11993.691,8180.4973 11953.427,8150.3 11667.811,7975.4068 9894.9727,6888.3009 3837.8807,3207.9943 3783.777,3185.3463 c -207.607,-84.301 -452.9608,-50.329 -580.0414,80.5263 -42.7796,44.0379 -275.5512,411.4394 -337.2042,530.9708 -110.7238,217.6728 -2.5165,508.3226 251.6449,680.6994 37.7467,25.1644 366.1433,227.7386 729.7702,449.1861 1859.6557,1134.9185 2846.1036,1737.608 3674.0153,2245.9307 502.0316,308.2649 1206.6373,739.836 1566.4895,960.0252 359.8522,220.1892 674.4084,413.9558 699.5724,430.3128 80.527,52.8454 124.564,163.5691 99.4,254.1613 -28.94,109.4655 -133.372,183.7008 -244.0959,174.8932 -59.1361,-5.0329 -201.3155,-89.334 -1850.8477,-1098.4299 C 4868.3665,6104.427 4137.3381,5659.0155 3489.3526,5263.933 2778.4557,4832.3621 2791.038,4839.9115 2682.8307,4737.9953 c -216.4146,-202.5742 -333.4295,-468.0595 -333.4295,-757.4512 0,-148.4705 18.8733,-242.8372 71.7188,-357.3357 39.0049,-88.0757 304.4903,-519.6467 379.9837,-620.3047 221.4475,-294.4245 654.2767,-412.6976 1072.0073,-291.908 142.1793,41.5214 125.8224,31.4556 1824.4254,1070.749 1191.5385,728.5119 5997.9556,3656.4002 6218.1446,3787.2555 237.804,140.9212 328.396,202.5742 441.637,304.4903 387.533,340.9789 580.042,850.5598 488.191,1292.1966 -41.522,203.8324 -69.202,261.7107 -308.265,651.7603 -147.212,240.3206 -195.025,305.7476 -299.457,405.1476 -163.569,158.536 -362.369,261.711 -607.723,314.557 -127.081,27.68 -378.726,32.714 -514.613,11.323 z" />
  <text
     id="text273802-3"
     y="4.2458334"
     x="2.5037618"
     style="font-size:5.01567411px;line-height:1.25;font-family:Arial;-inkscape-font-specification:'Arial, Normal';font-variant-ligatures:none;overflow:hidden;fill:#d22027;fill-opacity:1;stroke-width:0.20898549"
     xml:space="preserve"><tspan
       y="4.2458334"
       x="2.5037618"
       style="font-style:normal;font-variant:normal;font-weight:normal;font-stretch:normal;font-family:'Source Sans 3';-inkscape-font-specification:'Source Sans 3, ';fill:#d22027;fill-opacity:1;stroke-width:0.20898549"
       id="tspan273800-0"
       sodipodi:role="line">1</tspan></text>
</svg>
