<?xml version="1.0" encoding="UTF-8" standalone="no"?>
<!-- Created with Inkscape (http://www.inkscape.org/) -->

<svg
   xmlns:dc="http://purl.org/dc/elements/1.1/"
   xmlns:cc="http://creativecommons.org/ns#"
   xmlns:rdf="http://www.w3.org/1999/02/22-rdf-syntax-ns#"
   xmlns:svg="http://www.w3.org/2000/svg"
   xmlns="http://www.w3.org/2000/svg"
   xmlns:sodipodi="http://sodipodi.sourceforge.net/DTD/sodipodi-0.dtd"
   xmlns:inkscape="http://www.inkscape.org/namespaces/inkscape"
   width="20"
   height="20"
   viewBox="0 0 5.2916665 5.2916668"
   version="1.1"
   id="svg348636"
   sodipodi:docname="button_appalpha.svg"
   inkscape:version="0.92.3 (2405546, 2018-03-11)">
  <sodipodi:namedview
     id="namedview348638"
     pagecolor="#ffffff"
     bordercolor="#666666"
     borderopacity="1.0"
     inkscape:pageshadow="2"
     inkscape:pageopacity="0.0"
     inkscape:pagecheckerboard="0"
     inkscape:document-units="mm"
     showgrid="false"
     units="px"
     inkscape:zoom="17.113889"
     inkscape:cx="-7.9148979"
     inkscape:cy="9.5381949"
     inkscape:window-width="1920"
     inkscape:window-height="1017"
     inkscape:window-x="-8"
     inkscape:window-y="-8"
     inkscape:window-maximized="1"
     inkscape:current-layer="svg348636" />
  <metadata
     id="metadata19">
    <rdf:RDF>
      <cc:Work
         rdf:about="">
        <dc:format>image/svg+xml</dc:format>
        <dc:type
           rdf:resource="http://purl.org/dc/dcmitype/StillImage" />
      </cc:Work>
    </rdf:RDF>
  </metadata>
  <defs
     id="defs348633" />
  <path
     transform="matrix(0.257455,0.000000,0.000000,-0.257455,-37.140755,-0.810235)"
     d="m 145.63196,-4.3335144 c -0.11333,-0.2024115 -0.19224,-0.4262544 -0.22197,-0.6402318 -0.0243,-0.1869322 -0.0249,-16.6408468 -7.1e-4,-16.8702168 0.009,-0.07297 0.0454,-0.2218 0.0797,-0.329383 0.17753,-0.540723 0.6469,-1.022844 1.2587,-1.292262 0.29105,-0.12816 0.7532,-0.226554 1.09216,-0.232842 0.34236,-0.0057 2.34538,-4.78e-4 2.53845,0.0071 0.57368,0.0228 1.14076,0.216713 1.58166,0.543977 0.19592,0.145008 0.47833,0.464274 0.58642,0.660563 0.0999,0.183105 0.18482,0.448453 0.20793,0.644315 0.0231,0.195861 0.0319,3.478225 0.0204,6.513018 -0.006,1.018174 -0.006,1.255708 -0.002,2.877203 0.004,0.709201 -0.002,1.317538 -0.0102,1.347728 -0.0214,0.07458 -0.12044,0.181319 -0.20759,0.219671 -0.27063,0.121271 -0.66054,-0.0014 -0.70787,-0.222319 -0.009,-0.03411 -0.0128,-0.534687 -0.015,-1.111897 0.001,-0.576614 -4.3e-4,-1.404284 -0.002,-1.836573 -0.002,-1.107051 -1.2e-4,-3.805484 0.004,-4.79534 0.007,-1.815398 0.002,-2.835358 -0.0203,-2.972454 -0.0381,-0.237621 -0.11119,-0.392575 -0.29336,-0.610892 -0.18695,-0.220443 -0.31098,-0.315101 -0.57581,-0.438167 -0.3013,-0.138545 -0.44574,-0.150623 -1.76,-0.152171 -1.46413,-0.0028 -1.40182,-0.0049 -1.61779,0.03961 -0.67307,0.138702 -1.18375,0.668449 -1.21976,1.262498 -0.0126,0.2053 -0.0172,1.840996 -0.0207,10.765503 -0.002,3.186431 3e-4,5.8322232 0.005,5.8786583 0.0253,0.2432327 0.12603,0.4617182 0.31426,0.6836919 0.16098,0.1898259 0.30565,0.2985176 0.54818,0.4124832 0.27817,0.1319098 0.53215,0.1630406 1.27166,0.1611802 0.33729,-0.00137 0.68342,-0.01292 0.76699,-0.024488 0.0955,-0.014705 0.22612,-0.053326 0.36091,-0.104265 0.28395,-0.1124237 0.45213,-0.2306397 0.64474,-0.454224 0.12557,-0.1478089 0.15862,-0.2086161 0.22767,-0.4093245 0.0711,-0.2121046 0.0805,-0.2835432 0.0811,-0.7610781 0.006,-2.9652263 -0.0292,-13.071029 -0.0469,-13.153694 -0.0719,-0.315267 -0.38236,-0.588526 -0.73441,-0.645852 -0.11846,-0.01931 -0.97896,-0.02935 -1.24439,-0.0155 -0.48174,0.02712 -0.86084,0.374871 -0.88964,0.812264 -0.004,0.06463 -0.006,0.6148 -0.005,1.22186 0.002,3.106403 0.002,4.754686 -10e-4,6.139922 -0.002,0.840002 -0.004,2.0181488 -0.005,2.6196824 -4.9e-4,0.6015331 -0.002,1.1283091 -0.005,1.1710883 -0.006,0.1372637 -0.14765,0.2731667 -0.32658,0.3099037 -0.21465,0.046179 -0.44775,-0.025688 -0.54711,-0.1669538 -0.0524,-0.075691 -0.0568,-0.3113543 -0.055,-3.0685586 0.004,-4.887953 0.001,-6.108537 2e-4,-7.190667 -0.005,-1.185801 -0.005,-1.164879 0.0559,-1.372307 0.11869,-0.41392 0.44626,-0.753673 0.93486,-0.968834 0.25068,-0.110388 0.42946,-0.157587 0.6773,-0.178419 0.18895,-0.01803 1.19153,-0.01589 1.43936,0.0011 0.72557,0.05053 1.37182,0.489207 1.59889,1.087255 0.0765,0.203858 0.0766,0.176472 0.0744,3.01583 -6.4e-4,1.991359 0.0149,10.0160783 0.0213,10.3812669 0.007,0.3941053 -0.004,0.5501653 -0.0585,0.7637155 -0.17587,0.725018 -0.83761,1.3381072 -1.67803,1.5547096 -0.38698,0.101029 -0.51326,0.1103872 -1.41846,0.1095252 -0.55764,-4.336e-4 -0.71744,-0.01 -0.99301,-0.063121 -0.43642,-0.081138 -0.81574,-0.2463052 -1.1581,-0.5055308 -0.17785,-0.1340351 -0.44597,-0.4364648 -0.55006,-0.6176996 z"
     id="path865-3-5"
     style="overflow:hidden;stroke-width:0.00211339"
     inkscape:connector-curvature="0" />
  <text
     xml:space="preserve"
     style="font-size:5.70669937px;line-height:1.25;font-family:Arial;-inkscape-font-specification:'Arial, Normal';font-variant-ligatures:none;fill:#d22027;fill-opacity:1;stroke-width:0.23778"
     x="2.4379621"
     y="4.1759653"
     id="text264042-4"><tspan
       sodipodi:role="line"
       id="tspan264040-7"
       style="font-style:normal;font-variant:normal;font-weight:normal;font-stretch:normal;font-family:'Source Sans 3';-inkscape-font-specification:'Source Sans 3, ';fill:#d22027;fill-opacity:1;stroke-width:0.23778"
       x="2.4379621"
       y="4.1759653">a</tspan></text>
</svg>
