<?xml version="1.0" encoding="UTF-8" standalone="no"?>
<svg
   xmlns:dc="http://purl.org/dc/elements/1.1/"
   xmlns:cc="http://creativecommons.org/ns#"
   xmlns:rdf="http://www.w3.org/1999/02/22-rdf-syntax-ns#"
   xmlns:svg="http://www.w3.org/2000/svg"
   xmlns="http://www.w3.org/2000/svg"
   xmlns:sodipodi="http://sodipodi.sourceforge.net/DTD/sodipodi-0.dtd"
   xmlns:inkscape="http://www.inkscape.org/namespaces/inkscape"
   width="60mm"
   height="20mm"
   viewBox="0 0 60 20"
   version="1.1"
   id="svg8"
   inkscape:version="1.0.1 (3bc2e813f5, 2020-09-07)"
   sodipodi:docname="pens_sprite.svg">
  <defs
     id="defs2" />
  <sodipodi:namedview
     id="base"
     pagecolor="#ffffff"
     bordercolor="#666666"
     borderopacity="1.0"
     inkscape:pageopacity="0.0"
     inkscape:pageshadow="2"
     inkscape:zoom="1.979899"
     inkscape:cx="165.20622"
     inkscape:cy="54.479764"
     inkscape:document-units="mm"
     inkscape:current-layer="layer1"
     inkscape:document-rotation="0"
     showgrid="false"
     inkscape:window-width="1755"
     inkscape:window-height="1008"
     inkscape:window-x="143"
     inkscape:window-y="0"
     inkscape:window-maximized="0" />
  <metadata
     id="metadata5">
    <rdf:RDF>
      <cc:Work
         rdf:about="">
        <dc:format>image/svg+xml</dc:format>
        <dc:type
           rdf:resource="http://purl.org/dc/dcmitype/StillImage" />
        <dc:title></dc:title>
      </cc:Work>
    </rdf:RDF>
  </metadata>
  <g
     inkscape:label="Layer 1"
     inkscape:groupmode="layer"
     id="layer1">
    <path
       d="m 41.489756,18.999899 v -3.18342 l 11.90109,-11.9011004 3.18342,3.18342 -11.90109,11.9011004 z m 16.35788,-13.1744604 -3.18342,-3.18342 1.22439,-1.2244 c 0.26122,-0.2612 0.58771,-0.39997 0.97951,-0.41629 0.39181,-0.0163 0.71831,0.10615 0.97952,0.36732 l 1.27336,1.27337 c 0.26122,0.2612 0.38365,0.58771 0.36732,0.97952 -0.0163,0.3918 -0.15504,0.71831 -0.41629,0.97951 z"
       id="path12"
       style="fill:#ffffff;fill-opacity:1;stroke:#000000;stroke-width:0.979512"
       sodipodi:nodetypes="ccccccccccccccc" />
    <path
       d="m 1,19.000006 v -3.18342 L 12.901083,3.9154962 16.084507,7.0989162 4.1834236,19.000006 Z m 16.357868,-13.1744598 -3.183413,-3.18342 1.224391,-1.22439 c 0.26122,-0.26121 0.587701,-0.39997 0.979511,-0.4163 0.391811,-0.0163 0.718311,0.10615 0.979511,0.36733 l 1.273372,1.27337 c 0.26122,0.2612 0.38364,0.5877 0.36732,0.97951 -0.0163,0.3918 -0.15504,0.71831 -0.41629,0.97951 z"
       id="path12-5"
       style="fill:#007095;fill-opacity:1;stroke-width:0.979512"
       sodipodi:nodetypes="ccccccccccccccc" />
    <path
       d="m 21,19.000006 v -3.18342 L 32.901079,3.9154862 36.084499,7.0989062 24.18342,19.000006 Z m 16.357869,-13.1744598 -3.18342,-3.18342 1.22439,-1.22439 c 0.26122,-0.26121 0.58771,-0.39997 0.97952,-0.4163 0.3918,-0.0163 0.71831,0.10615 0.97951,0.36732 l 1.27336,1.27337 c 0.26122,0.26121 0.38365,0.58771 0.36733,0.97952 -0.0163,0.3918 -0.15505,0.71831 -0.4163,0.97951 z"
       id="path12-7"
       style="fill:#696969;fill-opacity:1;stroke-width:0.979512"
       sodipodi:nodetypes="ccccccccccccccc" />
  </g>
</svg>
